# xmcd
#
# Track frame offsets:
#	150
#	13489
#	29247
#	43858
#	54647
#	68990
#	85164
#	97187
#	125329
#	135298
#	154944
#	173026
#	188414
#	207999
#	219171
#	231394
#	244964
#	254473
#	271118
#	283522
#
# Disc length: 3984 seconds
#
# Revision: 0
# Processed by: cddbd v1.5.2PL0 Copyright (c) Steve Scherf et al.
# Submitted via: EasyCDDAExtractor 16.0.6.1
#
DISCID=2a0f8e14
DTITLE=Συλλογικός δίσκος - Τα μεγάλα τραγούδια-Μ. Θεοδωράκης 02
DYEAR=2010
DGENRE=Λαϊκή
TTITLE0=Πρωτοψάλτη Άλκηστις - Την πόρτα ανοίγω το βράδυ [Τάσος Λειβαδίτης]
TTITLE1=Μητσιάς Μανώλης - Στο παζάρι του φονιά [Μάνος Ελευθερίου]
TTITLE2=Φαραντούρη Μαρία - Πού πέταξε τ' αγόρι μου [Γιάννης Ρίτσος]
TTITLE3=Στόκας Μπάμπης - Όμορφη πόλη [Γιάννης Θεοδωράκης]
TTITLE4=Γλυκερία - Σε ποιό βουνό [Χρήστος Κολοκοτρώνης]
TTITLE5=Πουλόπουλος Γιάννης - Βράχο, βράχο τον καϋμό μου [Δημ. Χριστοδούλου]
TTITLE6=Αρλέτα - Αγάπη μου [Γ. Θεοδωράκης, ''Φαίδρα'']
TTITLE7=Μπάσης Δημήτρης - Το όνειρο [Μίκης Θεοδωράκης]
TTITLE8=Μερκούρη Μελίνα - Μυρτιά [Νίκος Γκάτσος]
TTITLE9=Ζορμπαλά Μαργαρίτα - Μενεξεδένια τα βουνά [Γιάννης Θεοδωράκης]
TTITLE10=Λίντα Μαίρη - Σε πότισα ροδόσταμο [Νίκος Γκάτσος]
TTITLE11=Καλογιάννης Αντώνης - Η μπαλάντα του Αντρίκου [Κώστας Βάρναλης]
TTITLE12=Ζωγράφος Γιώργος - Άσμα ασμάτων [Ιάκ. Καμπανέλλης]
TTITLE13=Θεοδωράκης Μίκης - Είμαι Άγγλος, νιός και τυχερός [Brendan Francis Be
TTITLE13=han, Β.Ρώτας]
TTITLE14=Κρυστάλη Σάνια - Συλλείτουργο [Γιάννης Ρίτσος]
TTITLE15=Ζώη Μαρία - Ο λεβέντης [Νότης Περγιάλης]
TTITLE16=Βιτάλη Ελένη-Καμένος Κώστας - Αυγή [Γιάννης Ρίτσος]
TTITLE17=Γλυκερία - Βραδιάζει [Δημήτρης Χριστοδούλου]
TTITLE18=Φαραντούρη Μαρία - Όταν σταματήσει ο χρόνος [Μίκης Θεοδωράκης]
TTITLE19=Άνευ ερμηνευτού - Όλα είναι φως [οργανικό]
EXTD=
EXTT0=
EXTT1=
EXTT2=
EXTT3=
EXTT4=
EXTT5=
EXTT6=
EXTT7=
EXTT8=
EXTT9=
EXTT10=
EXTT11=
EXTT12=
EXTT13=
EXTT14=
EXTT15=
EXTT16=
EXTT17=
EXTT18=
EXTT19=
PLAYORDER=
